<svg width="350" height="140" xmlns="http://www.w3.org/2000/svg">
    <g stroke="cornflowerblue" stroke-width="10" fill="none">
        <path d="m20 80 a10,10 0 0 1 10,-10 h30 a10,10 0 0 1 10,10 v30 a10,10 0 0 1 -10,10 h-30 a10,10 0 0 1 -10,-10 z"/> <!-- O -->
        <path d="m85 125 v-55 h40 a10,10 0 0 1 10,10 v5 a10,10 0 0 1 -10,10 h-30"/> <!-- p -->
        <path d="m200 120 h-40 a10,10 0 0 1 -10,-10 v-30 a10,10 0 0 1 10,-10 h30 a10,10 0 0 1 10,10 v5 a10,10 0 0 1 -10,10 h-30"/> <!-- e -->
        <path d="m215 125 v-45 a10,10 0 0 1 10,-10 h5 a10,10 0 0 1 10,10 v30 a10,10 0 0 0 10,10 h5 a10,10 0 0 0 10,-10 v-45"/> <!-- n -->
        <path d="m330 120 h-40 a10,10 0 0 1 -10,-10 v-90" stroke="orange"/> <!-- L -->
    </g>
</svg>
