<svg width="18" height="18" viewBox="0 0 18 18" fill="none" xmlns="http://www.w3.org/2000/svg">
    <path fill-rule="evenodd" clip-rule="evenodd"
          d="M5.72411 13.2129L4.31235 10.2129L5.21716 9.7871L6.62893 12.7871L5.72411 13.2129ZM3.9594 13.2129L2.54764 10.2129L3.45246 9.7871L4.86422 12.7871L3.9594 13.2129ZM7.58828 12.2C7.86443 12.2 8.08828 12.4239 8.08828 12.7V12.706C8.08828 12.9821 7.86443 13.206 7.58828 13.206C7.31214 13.206 7.08828 12.9821 7.08828 12.706V12.7C7.08828 12.4239 7.31214 12.2 7.58828 12.2ZM9.00005 12.2C9.27619 12.2 9.50005 12.4239 9.50005 12.7V12.706C9.50005 12.9821 9.27619 13.206 9.00005 13.206C8.72391 13.206 8.50005 12.9821 8.50005 12.706V12.7C8.50005 12.4239 8.72391 12.2 9.00005 12.2Z"
          fill="#817E7E"/>
    <path fill-rule="evenodd" clip-rule="evenodd"
          d="M0.800049 4C0.800049 3.6134 1.11345 3.3 1.50005 3.3H6.50005C6.6857 3.3 6.86375 3.37375 6.99502 3.50503L10.995 7.50503C11.1263 7.6363 11.2 7.81435 11.2 8V16.5C11.2 16.8866 10.8866 17.2 10.5 17.2H1.50005C1.11345 17.2 0.800049 16.8866 0.800049 16.5V4ZM2.20005 4.7V15.8H9.80005V8.7H6.50005C6.11345 8.7 5.80005 8.3866 5.80005 8V4.7H2.20005ZM7.20005 5.68995L8.8101 7.3H7.20005V5.68995Z"
          fill="#817E7E"/>
    <path fill-rule="evenodd" clip-rule="evenodd"
          d="M6.80005 1.5C6.80005 1.1134 7.11345 0.800003 7.50005 0.800003H12.5C12.6857 0.800003 12.8637 0.873753 12.995 1.00503L16.995 5.00503C17.1263 5.1363 17.2 5.31435 17.2 5.5V14C17.2 14.3866 16.8866 14.7 16.5 14.7H12V13.3H15.8V6.2H12.5C12.1134 6.2 11.8 5.8866 11.8 5.5V2.2H8.20005V2.75H6.80005V1.5ZM13.2 3.18995L14.8101 4.8H13.2V3.18995Z"
          fill="#817E7E"/>
</svg>
