<svg width="48" height="48" viewBox="0 0 48 48" fill="none" xmlns="http://www.w3.org/2000/svg">
<circle cx="24" cy="24" r="24" fill="#2863A9"/>
<path fill-rule="evenodd" clip-rule="evenodd" d="M30.8 12.8458L31.6352 14.662C32.144 15.7683 33.0317 16.6561 34.138 17.1648L35.9542 18L34.138 18.8352C33.0317 19.3439 32.144 20.2317 31.6352 21.338L30.8 23.1542L29.9649 21.338C29.4561 20.2317 28.5684 19.3439 27.4621 18.8352L25.6459 18L27.4621 17.1648C28.5684 16.6561 29.4561 15.7683 29.9649 14.662L30.8 12.8458ZM30.8 16.7388C30.436 17.2119 30.012 17.6359 29.5388 18C30.012 18.3641 30.436 18.7881 30.8 19.2612C31.1641 18.7881 31.5881 18.3641 32.0613 18C31.5881 17.6359 31.1641 17.2119 30.8 16.7388Z" fill="white"/>
<path d="M15.8 16.65C15.7448 16.65 15.7 16.6948 15.7 16.75V30.233L18.0989 28.0802C18.2641 27.932 18.4781 27.85 18.7 27.85H31.8C31.8553 27.85 31.9 27.8052 31.9 27.75V24.1912H33.7V27.75C33.7 28.7993 32.8494 29.65 31.8 29.65H19.0447L15.4011 32.9198C15.1368 33.1571 14.7576 33.2166 14.4333 33.0719C14.1089 32.9272 13.9 32.6052 13.9 32.25V16.75C13.9 15.7007 14.7507 14.85 15.8 14.85H24.8V16.65H15.8Z" fill="white"/>
<path d="M24.1265 20.393L23.3 18.5958L22.4736 20.393C22.2641 20.8485 21.8986 21.2141 21.443 21.4236L19.6459 22.25L21.443 23.0764C21.8986 23.2859 22.2641 23.6515 22.4736 24.107L23.3 25.9042L24.1265 24.107C24.3359 23.6515 24.7015 23.2859 25.157 23.0764L26.9542 22.25L25.157 21.4236C24.7015 21.2141 24.3359 20.8485 24.1265 20.393Z" fill="white"/>
</svg>
